<?xml version="1.0" encoding="UTF-8" standalone="no"?>
<svg
   xmlns:dc="http://purl.org/dc/elements/1.1/"
   xmlns:cc="http://creativecommons.org/ns#"
   xmlns:rdf="http://www.w3.org/1999/02/22-rdf-syntax-ns#"
   xmlns:svg="http://www.w3.org/2000/svg"
   xmlns="http://www.w3.org/2000/svg"
   xmlns:sodipodi="http://sodipodi.sourceforge.net/DTD/sodipodi-0.dtd"
   xmlns:inkscape="http://www.inkscape.org/namespaces/inkscape"
   inkscape:version="1.0rc1 (0bf991bb86, 2020-04-29)"
   sodipodi:docname="facebook.svg"
   id="svg123"
   version="1.1"
   width="500px"
   height="1000px">
  <metadata
     id="metadata129">
    <rdf:RDF>
      <cc:Work
         rdf:about="">
        <dc:format>image/svg+xml</dc:format>
        <dc:type
           rdf:resource="http://purl.org/dc/dcmitype/StillImage" />
      </cc:Work>
    </rdf:RDF>
  </metadata>
  <defs
     id="defs127" />
  <sodipodi:namedview
     inkscape:current-layer="svg123"
     inkscape:window-maximized="1"
     inkscape:window-y="27"
     inkscape:window-x="52"
     inkscape:cy="500"
     inkscape:cx="-19.778481"
     inkscape:zoom="0.632"
     showgrid="false"
     id="namedview125"
     inkscape:window-height="1016"
     inkscape:window-width="1868"
     inkscape:pageshadow="2"
     inkscape:pageopacity="0"
     guidetolerance="10"
     gridtolerance="10"
     objecttolerance="10"
     borderopacity="1"
     bordercolor="#666666"
     pagecolor="#ffffff" />
  <g
     style="fill:#ffffff"
     id="g121">
    <path
       style="fill:#ffffff"
       id="path119"
       d="M500 206c0 0 -142 0 -142 0c-9.333 0 -17.667 5 -25 15c-7.333 10 -11 22.333 -11 37c0 0 0 102 0 102c0 0 178 0 178 0c0 0 0 148 0 148c0 0 -178 0 -178 0c0 0 0 442 0 442c0 0 -170 0 -170 0c0 0 0 -442 0 -442c0 0 -152 0 -152 0c0 0 0 -148 0 -148c0 0 152 0 152 0c0 0 0 -86 0 -86c0 -62.667 19.667 -115.667 59 -159c39.333 -43.333 88.333 -65 147 -65c0 0 142 0 142 0c0 0 0 156 0 156c0 0 0 0 0 0" />
  </g>
</svg>
