<?xml version="1.0" encoding="UTF-8" standalone="no"?>
<svg
   xmlns:dc="http://purl.org/dc/elements/1.1/"
   xmlns:cc="http://creativecommons.org/ns#"
   xmlns:rdf="http://www.w3.org/1999/02/22-rdf-syntax-ns#"
   xmlns:svg="http://www.w3.org/2000/svg"
   xmlns="http://www.w3.org/2000/svg"
   xmlns:sodipodi="http://sodipodi.sourceforge.net/DTD/sodipodi-0.dtd"
   xmlns:inkscape="http://www.inkscape.org/namespaces/inkscape"
   inkscape:version="1.1-dev (ae55a4e461, 2020-04-06)"
   sodipodi:docname="undraw_new_ideas_jdea.svg"
   version="1.1"
   viewBox="0 0 645.99755 594.41033"
   height="594.41034"
   width="645.99756"
   data-name="Layer 1"
   id="b6fe4ea4-91cd-4e88-acbb-2663d3326f54">
  <metadata
     id="metadata79">
    <rdf:RDF>
      <cc:Work
         rdf:about="">
        <dc:format>image/svg+xml</dc:format>
        <dc:type
           rdf:resource="http://purl.org/dc/dcmitype/StillImage" />
      </cc:Work>
    </rdf:RDF>
  </metadata>
  <defs
     id="defs77" />
  <sodipodi:namedview
     inkscape:current-layer="b6fe4ea4-91cd-4e88-acbb-2663d3326f54"
     inkscape:window-maximized="1"
     inkscape:window-y="0"
     inkscape:window-x="0"
     inkscape:cy="238.24707"
     inkscape:cx="481.40417"
     inkscape:zoom="0.48117043"
     showgrid="false"
     id="namedview75"
     inkscape:window-height="703"
     inkscape:window-width="1366"
     inkscape:pageshadow="2"
     inkscape:pageopacity="0"
     guidetolerance="10"
     gridtolerance="10"
     objecttolerance="10"
     borderopacity="1"
     bordercolor="#666666"
     pagecolor="#ffffff" />
  <title
     id="title2">new_ideas</title>
  <path
     id="path4"
     fill="#6c63ff"
     d="m 589.96534,270.31 c 0,35.17 -8.33,64.12 -22.7799,88.92 a 177.67758,177.67758 0 0 1 -16.19,23.25 c -53.12001,64.97 -151.88001,100.53 -241.14001,158.13 -263.48,170.02 -292.02,-102.42 -280.12,-270.3 4.8,-67.74 31.18,-129.79 73.09,-177.3 a 278.22062,278.22062 0 0 1 28.45,-27.97 c 47.58,-40.52 109.05,-65.04 178.58,-65.04 119.29,0 221.16,71.95 261.55001,173.34 a 261.84957,261.84957 0 0 1 18.5599,96.97 z" />
  <path
     id="path6"
     fill="#d0cde1"
     d="m 369.53544,60.91998 -266.71,32.09 a 278.22062,278.22062 0 0 1 28.45,-27.97 z" />
  <path
     id="path8"
     fill="#d0cde1"
     d="m 567.18544,359.22998 a 177.67758,177.67758 0 0 1 -16.19,23.25 l -228.46,-27.48 z" />
  <path
     id="path10"
     fill="#d0cde1"
     d="m 580.72534,201.21997 -387.18994,-50.22 377.87004,22.34 a 260.439,260.439 0 0 1 9.3199,27.88 z" />
  <path
     id="path12"
     fill="#6c63ff"
     d="m 55.99997,72.00214 c 0,0.69 -0.02,1.37 -0.08,2.04 a 27.99706,27.99706 0 1 1 -52.6800003,-15.11 25.73956,25.73956 0 0 1 2.06,-3.31 27.9889,27.9889 0 0 1 50.6000003,14.1 c 0.07,0.74997 0.1,1.50998 0.1,2.28 z" />
  <path
     id="path14"
     fill="#d0cde1"
     d="m 55.99997,72.00214 c 0,0.69 -0.02,1.37 -0.08,2.04 l -41.92,-5.04 41.9,0.72 c 0.07,0.74997 0.1,1.50998 0.1,2.28 z" />
  <path
     id="path16"
     fill="#d0cde1"
     d="m 45.99997,86.11212 -38.7800003,4.67 a 28.05694,28.05694 0 0 1 -2.96,-3.95 z" />
  <path
     id="path18"
     fill="#d0cde1"
     d="m 34.99997,55.11212 -31.7600003,3.82 a 25.73956,25.73956 0 0 1 2.06,-3.31 z" />
  <path
     id="path20"
     fill="#6c63ff"
     d="m 439.73287,576.12783 c -0.32346,0.60949 -0.65991,1.20075 -1.027,1.76443 a 27.99706,27.99706 0 1 1 -39.45,-38.042 25.73938,25.73938 0 0 1 3.37127,-1.9581 27.98891,27.98891 0 0 1 38.08621,36.17477 c -0.28977,0.69535 -0.61952,1.38072 -0.98048,2.0609 z" />
  <path
     id="path22"
     fill="#d0cde1"
     d="m 439.73287,576.12783 c -0.32346,0.60949 -0.65991,1.20075 -1.027,1.76443 l -34.66603,-24.10292 36.67354,20.27763 c -0.2898,0.69531 -0.61955,1.38068 -0.98051,2.06086 z" />
  <path
     id="path24"
     fill="#d0cde1"
     d="m 424.28529,583.90368 -36.44426,-14.054 a 28.05745,28.05745 0 0 1 -0.76292,-4.87668 z" />
  <path
     id="path26"
     fill="#d0cde1"
     d="m 429.1008,551.36428 -29.8449,-11.514 a 25.73938,25.73938 0 0 1 3.37127,-1.9581 z" />
  <path
     id="path28"
     fill="#6c63ff"
     d="m 638.04524,93.45254 c 0.4818,0.494 0.9422,0.99477 1.367,1.5163 a 27.99707,27.99707 0 1 1 -48.2635,25.96387 25.73851,25.73851 0 0 1 -0.8363,-3.80793 27.9889,27.9889 0 0 1 46.0693,-25.23471 c 0.5738,0.48809 1.1259,1.01121 1.6635,1.56247 z" />
  <path
     id="path30"
     fill="#d0cde1"
     d="m 638.04524,93.45254 c 0.4818,0.494 0.9422,0.99477 1.367,1.5163 l -33.5295,25.66038 30.499,-28.73915 c 0.5738,0.48809 1.1259,1.01121 1.6635,1.56247 z" />
  <path
     id="path32"
     fill="#d0cde1"
     d="m 640.73784,110.53592 -24.5022,30.41946 a 28.0572,28.0572 0 0 1 -4.8769,-0.76118 z" />
  <path
     id="path34"
     fill="#d0cde1"
     d="m 611.21874,96.02312 -20.07,24.90959 a 25.73851,25.73851 0 0 1 -0.8363,-3.80793 z" />
  <path
     id="path56"
     fill="#3f3d56"
     d="m 85.35044,323.1809 -0.46437,-0.0612 1.13287,4.30643 a 113.17562,113.17562 0 0 0 4.65,17.67685 l 33.22635,126.30782 a 21.40811,21.40811 0 0 0 17.43077,15.71007 l 67.75971,10.48261 a 21.408,21.408 0 0 0 22.1461,-11.05183 l 64.39386,-120.27626 a 113.00339,113.00339 0 0 0 5.50835,-10.28834 l 2.18627,-4.08367 -0.34094,-0.0449 a 113.84725,113.84725 0 1 0 -217.629,-28.67751 z" />
  <path
     id="path58"
     fill="#d0cde1"
     d="m 213.24414,505.85568 a 23.29759,23.29759 0 0 1 -3.56446,-0.27442 l -70.82763,-10.958 A 23.3712,23.3712 0 0 1 119.81787,477.46798 L 85.08744,345.4421 a 119.05567,119.05567 0 0 1 -4.87793,-18.55615 l -0.87842,-5.77588 A 120.02561,120.02561 0 0 1 216.72363,187.24679 l -0.30664,1.97656 A 118.0685,118.0685 0 0 0 81.48583,322.13595 l 0.6753,4.32031 a 118.2809,118.2809 0 0 0 4.83691,18.39991 l 34.7544,132.103 a 21.36975,21.36975 0 0 0 17.40527,15.6875 l 70.82764,10.958 a 21.407,21.407 0 0 0 22.11425,-11.03613 l 1.76368,0.94336 a 23.42072,23.42072 0 0 1 -20.61914,12.34378 z" />
  <rect
     id="rect60"
     fill="#d0cde1"
     transform="rotate(-69.88499)"
     height="2.58676"
     width="125.31395"
     y="338.12482"
     x="-376.22589" />
  <rect
     id="rect62"
     fill="#d0cde1"
     transform="rotate(-2.51583)"
     height="125.31395"
     width="2.58676"
     y="347.73407"
     x="143.13411" />
  <path
     id="path64"
     fill="#3f3d56"
     d="m 207.25651,565.71076 -90.75733,-14.04041 a 2.587,2.587 0 0 1 0.791,-5.11309 l 90.75733,14.04041 a 2.587,2.587 0 1 1 -0.791,5.11309 z" />
  <path
     id="path66"
     fill="#3f3d56"
     d="m 209.58366,546.4378 -90.75733,-14.04041 a 2.587,2.587 0 1 1 0.791,-5.11309 l 90.75734,14.04041 a 2.587,2.587 0 1 1 -0.791,5.11309 z" />
  <path
     id="path68"
     fill="#3f3d56"
     d="m 211.91081,527.16484 -90.75737,-14.04041 a 2.587,2.587 0 0 1 0.791,-5.11309 l 90.75733,14.04041 a 2.587,2.587 0 0 1 -0.791,5.11309 z" />
  <path
     id="path70"
     fill="#3f3d56"
     d="m 159.05679,576.92591 c 18.00222,2.785 34.1481,-4.99048 36.06278,-17.367 l -65.19188,-10.08536 c -1.91469,12.37651 11.12687,24.66737 29.1291,27.45236 z" />
  <path
     id="path72"
     fill="#d0cde1"
     d="m 191.68023,327.09949 c -3.87236,-0.59843 -7.07617,-3.65939 -8.83264,-5.711 -0.57595,-0.67259 -1.1365,-1.37029 -1.69874,-2.06952 -2.04551,-2.54625 -3.97681,-4.95084 -6.66642,-6.20478 -5.93686,-2.76991 -12.93209,1.099 -18.98864,5.24984 l -1.46325,-2.13343 c 6.65876,-4.56514 14.42362,-8.78213 21.54579,-5.46138 3.23493,1.50894 5.44871,4.26464 7.58906,6.92909 0.545,0.67867 1.089,1.35527 1.64693,2.00782 1.82636,2.13272 5.46883,5.58876 9.37174,4.79166 a 12.5979,12.5979 0 0 0 4.49545,-2.37986 24.07683,24.07683 0 0 1 3.18135,-2.00734 12.66906,12.66906 0 0 1 13.90684,1.96545 25.02449,25.02449 0 0 1 1.88717,1.99578 c 1.16372,1.32656 2.26229,2.5785 3.69247,3.03366 2.11435,0.676 4.349,-0.53253 6.71686,-1.80932 2.442,-1.31774 4.96637,-2.68088 7.8299,-2.34462 0.0929,0.0112 0.18677,0.0238 0.27915,0.0381 5.09561,0.78831 7.44484,6.42363 8.77412,10.62937 l -2.46725,0.7789 c -1.80618,-5.71683 -4.00582,-8.55982 -6.889,-8.87675 -2.05123,-0.24128 -4.114,0.87246 -6.298,2.05116 -2.7378,1.4784 -5.57148,3.00651 -8.7311,1.99813 -2.11483,-0.67292 -3.5069,-2.2585 -4.852,-3.79208 a 22.79725,22.79725 0 0 0 -1.68845,-1.79311 10.16528,10.16528 0 0 0 -11.01236,-1.55665 21.837,21.837 0 0 0 -2.83631,1.80124 14.69665,14.69665 0 0 1 -5.46961,2.80242 8.504,8.504 0 0 1 -3.02306,0.0673 z" />
</svg>
