<?xml version="1.0" encoding="UTF-8" standalone="no"?>
<svg
   xmlns:dc="http://purl.org/dc/elements/1.1/"
   xmlns:cc="http://creativecommons.org/ns#"
   xmlns:rdf="http://www.w3.org/1999/02/22-rdf-syntax-ns#"
   xmlns:svg="http://www.w3.org/2000/svg"
   xmlns="http://www.w3.org/2000/svg"
   xmlns:xlink="http://www.w3.org/1999/xlink"
   xmlns:sodipodi="http://sodipodi.sourceforge.net/DTD/sodipodi-0.dtd"
   xmlns:inkscape="http://www.inkscape.org/namespaces/inkscape"
   width="1920"
   height="685"
   viewBox="0 0 507.99999 181.17616"
   version="1.1"
   id="svg8"
   inkscape:version="1.1-dev (ae55a4e461, 2020-04-06)"
   sodipodi:docname="design_panner_bg.svg">
  <defs
     id="defs2">
    <linearGradient
       inkscape:collect="always"
       id="linearGradient1192">
      <stop
         style="stop-color:#03dac6;stop-opacity:1"
         offset="0"
         id="stop1188" />
      <stop
         style="stop-color:#ffffff;stop-opacity:1"
         offset="1"
         id="stop1190" />
    </linearGradient>
    <rect
       x="161.39185"
       y="32.04163"
       width="200.09277"
       height="109.71739"
       id="rect295" />
    <inkscape:path-effect
       message="m 387.09174,142.303 v 486.49975 h -10.767 V 171.2303 c 3.601,-10.31236 7.23789,-19.99063 10.767,-28.9273 z"
       hide_clip="false"
       flatten="false"
       inverse="true"
       lpeversion="1"
       is_visible="true"
       id="path-effect19"
       effect="powerclip" />
    <linearGradient
       inkscape:collect="always"
       id="linearGradient895">
      <stop
         style="stop-color:#6200ee;stop-opacity:1;"
         offset="0"
         id="stop891" />
      <stop
         style="stop-color:#3700b3;stop-opacity:1"
         offset="1"
         id="stop893" />
    </linearGradient>
    <inkscape:path-effect
       effect="powerclip"
       id="path-effect887"
       is_visible="true"
       lpeversion="1"
       inverse="true"
       flatten="false"
       hide_clip="false"
       message="m 775.87661,200.96003 h -2 c 0.25,86.36 70.58,156.54 157,156.54 v -2 c -85.32,0 -154.75,-69.28 -155,-154.54 z" />
    <inkscape:path-effect
       effect="bspline"
       id="path-effect861"
       is_visible="true"
       lpeversion="1"
       weight="33.333333"
       steps="2"
       helper_size="0"
       apply_no_weight="true"
       apply_with_weight="true"
       only_selected="false" />
    <clipPath
       clipPathUnits="userSpaceOnUse"
       id="clipPath883">
      <path
         id="path885"
         style="display:none;fill:#000000;fill-opacity:1;stroke:none;stroke-width:2.03082"
         d="M 2468.1059,2379.0451 A 2214.1059,2214.1059 0 0 1 253.99998,4593.1512 2214.1059,2214.1059 0 0 1 -1960.1059,2379.0451 2214.1059,2214.1059 0 0 1 253.99998,164.93897 2214.1059,2214.1059 0 0 1 2468.1059,2379.0451" />
      <path
         id="lpe_path-effect887"
         style="fill:#000000;fill-opacity:1;stroke:none;stroke-width:2.03082"
         class="powerclip"
         d="M -4.9999998,-5.0499922 H 512.99999 V 184.60209 H -4.9999998 Z M 2468.1059,2379.0451 A 2214.1059,2214.1059 0 0 0 253.99998,164.93897 2214.1059,2214.1059 0 0 0 -1960.1059,2379.0451 2214.1059,2214.1059 0 0 0 253.99998,4593.1512 2214.1059,2214.1059 0 0 0 2468.1059,2379.0451" />
    </clipPath>
    <clipPath
       id="clipath_lpe_path-effect19"
       clipPathUnits="userSpaceOnUse">
      <path
         d="M 2468.1059,2379.0451 A 2214.1059,2214.1059 0 0 1 253.99998,4593.1512 2214.1059,2214.1059 0 0 1 -1960.1059,2379.0451 2214.1059,2214.1059 0 0 1 253.99998,164.93897 2214.1059,2214.1059 0 0 1 2468.1059,2379.0451"
         style="display:none;fill:#000000;fill-opacity:1;stroke:none;stroke-width:2.03082"
         id="path21" />
      <path
         d="M -4.9999998,-5.0499922 H 512.99999 V 184.60209 H -4.9999998 Z M 2468.1059,2379.0451 A 2214.1059,2214.1059 0 0 0 253.99998,164.93897 2214.1059,2214.1059 0 0 0 -1960.1059,2379.0451 2214.1059,2214.1059 0 0 0 253.99998,4593.1512 2214.1059,2214.1059 0 0 0 2468.1059,2379.0451"
         class="powerclip"
         style="fill:#000000;fill-opacity:1;stroke:none;stroke-width:2.03082"
         id="lpe_path-effect19" />
    </clipPath>
    <linearGradient
       y2="8.1126738"
       x2="286.31213"
       y1="139.70953"
       x1="286.31213"
       gradientUnits="userSpaceOnUse"
       id="linearGradient26"
       xlink:href="#linearGradient895"
       inkscape:collect="always" />
    <filter
       inkscape:collect="always"
       style="color-interpolation-filters:sRGB"
       id="filter961"
       x="-0.026442016"
       width="1.052884"
       y="-0.044772722"
       height="1.0895454">
      <feGaussianBlur
         inkscape:collect="always"
         stdDeviation="10.202211"
         id="feGaussianBlur963" />
    </filter>
    <linearGradient
       inkscape:collect="always"
       xlink:href="#linearGradient1192"
       id="linearGradient1194"
       x1="-18.933096"
       y1="-220.14778"
       x2="33.626335"
       y2="-113.60382"
       gradientUnits="userSpaceOnUse"
       gradientTransform="matrix(0.82207933,0,0,0.83764519,-15.770418,-13.688238)" />
  </defs>
  <sodipodi:namedview
     id="base"
     pagecolor="#313131"
     bordercolor="#666666"
     borderopacity="1.0"
     inkscape:pageopacity="0"
     inkscape:pageshadow="2"
     inkscape:zoom="0.49497475"
     inkscape:cx="765.47156"
     inkscape:cy="452.13651"
     inkscape:document-units="px"
     inkscape:current-layer="layer2"
     inkscape:document-rotation="0"
     showgrid="false"
     showguides="true"
     inkscape:pagecheckerboard="false"
     units="px"
     inkscape:showpageshadow="false"
     borderlayer="false"
     inkscape:snap-intersection-paths="true"
     inkscape:object-paths="true"
     inkscape:snap-smooth-nodes="true"
     inkscape:snap-midpoints="true"
     inkscape:snap-object-midpoints="true"
     inkscape:snap-center="true"
     inkscape:snap-page="true"
     inkscape:window-width="1366"
     inkscape:window-height="703"
     inkscape:window-x="0"
     inkscape:window-y="0"
     inkscape:window-maximized="1"
     inkscape:snap-global="false" />
  <metadata
     id="metadata5">
    <rdf:RDF>
      <cc:Work
         rdf:about="">
        <dc:format>image/svg+xml</dc:format>
        <dc:type
           rdf:resource="http://purl.org/dc/dcmitype/StillImage" />
        <dc:title></dc:title>
      </cc:Work>
    </rdf:RDF>
  </metadata>
  <g
     id="g24"
     inkscape:label="bg"
     transform="translate(-1.7500001e-7,1.6057823)">
    <path
       inkscape:path-effect="#path-effect887"
       clip-path="url(#clipPath883)"
       inkscape:original-d="M 1.7500001e-7,-0.04999219 H 507.99999 V 179.60209 H 1.7500001e-7 Z"
       sodipodi:nodetypes="ccccc"
       d="M 1.7500001e-7,-0.04999219 H 507.99999 V 179.60209 H 1.7500001e-7 Z"
       style="fill:#b380ff;fill-opacity:1;fill-rule:evenodd;stroke:none;stroke-width:0.257866"
       id="rect10" />
    <path
       id="path17"
       style="fill:url(#linearGradient26);fill-opacity:1;fill-rule:evenodd;stroke:none;stroke-width:0.257866"
       d="M 1.7500001e-7,-0.04999219 H 507.99999 V 179.60209 H 1.7500001e-7 Z"
       sodipodi:nodetypes="ccccc"
       inkscape:original-d="M 1.7500001e-7,-0.04999219 H 507.99999 V 179.60209 H 1.7500001e-7 Z"
       clip-path="url(#clipath_lpe_path-effect19)"
       inkscape:path-effect="#path-effect19"
       transform="translate(0,-1.5875)" />
  </g>
  <g
     inkscape:groupmode="layer"
     id="layer2"
     inkscape:label="elements"
     transform="translate(-1.7500001e-7,1.6057823)">
    <g
       id="g136"
       transform="matrix(0.11675017,0,0,0.11675017,375.85342,56.138984)"
       inkscape:label="top-panner-bg-right"
       style="opacity:0.35">
      <path
         id="path136"
         fill="#3f3d56"
         d="m 950.48531,216.39583 v 220.88 a 325.99128,325.99128 0 0 1 -326,326 H 24.485306 v -220.88 c 0,-118.03 62.73,-221.42 156.680004,-278.63 a 323.57742,323.57742 0 0 1 50.88,-25.18 320.09024,320.09024 0 0 1 31.76,-10.53 c 0.21,-0.07 0.43,-0.13 0.64,-0.18 q 4.77,-1.305 9.6,-2.46 c 0.18,-0.05 0.35,-0.09 0.53,-0.13 a 326.11582,326.11582 0 0 1 60.47,-8.53 c 2.41,-0.11005 4.82,-0.2 7.25,-0.25 0.87,-0.03 1.75,-0.05 2.64,-0.05 q 2.76,-0.06 5.55,-0.06 z"
         style="opacity:0.414441;fill:#000000;filter:url(#filter961)" />
      <circle
         cx="242.78156"
         cy="226.93552"
         r="83.979156"
         fill="#ff6584"
         id="circle4" />
      <path
         d="m 930.87661,200.96003 v 220.88 a 325.99128,325.99128 0 0 1 -326,326 H 4.8766095 v -220.88 c 0,-118.03 62.7299995,-221.42 156.6800005,-278.63 a 323.57742,323.57742 0 0 1 50.88,-25.18 320.09024,320.09024 0 0 1 31.76,-10.53 c 0.21,-0.07 0.43,-0.13 0.64,-0.18 q 4.77,-1.305 9.6,-2.46 c 0.18,-0.05 0.35,-0.09 0.53,-0.13 a 326.11582,326.11582 0 0 1 60.47,-8.53 c 2.41,-0.11005 4.82,-0.2 7.25,-0.25 0.87,-0.03 1.75,-0.05 2.64,-0.05 q 2.76,-0.06 5.55,-0.06 z"
         fill="#3f3d56"
         id="path6" />
      <g
         opacity="0.1"
         id="g12"
         transform="translate(4.8766095,3e-5)">
        <ellipse
           cx="352"
           cy="692"
           rx="80"
           ry="22.222219"
           id="ellipse10" />
      </g>
      <g
         opacity="0.1"
         id="g16"
         transform="translate(4.8766095,3e-5)">
        <ellipse
           cx="525"
           cy="652"
           rx="80"
           ry="22.222219"
           id="ellipse14" />
      </g>
      <g
         opacity="0.1"
         id="g20"
         transform="translate(4.8766095,3e-5)">
        <ellipse
           cx="352"
           cy="692"
           rx="72"
           ry="20"
           id="ellipse18" />
      </g>
      <g
         opacity="0.1"
         id="g24-3"
         transform="translate(4.8766095,3e-5)">
        <ellipse
           cx="525"
           cy="652"
           rx="72"
           ry="20"
           id="ellipse22" />
      </g>
      <circle
         cx="142.8766"
         cy="290.00003"
         r="7"
         fill="#f2f2f2"
         id="circle26" />
      <circle
         cx="744.87659"
         cy="564"
         r="7"
         fill="#f2f2f2"
         id="circle28" />
      <circle
         cx="414.87662"
         cy="339.00003"
         r="7"
         fill="#f2f2f2"
         id="circle30" />
      <circle
         cx="761.87659"
         cy="297.00003"
         r="4"
         fill="#ff6584"
         id="circle32" />
      <circle
         cx="158.8766"
         cy="497.00003"
         r="4"
         fill="#ff6584"
         id="circle34" />
      <polygon
         points="90,581.678 91.822,581.678 91.822,583.5 92.178,583.5 92.178,581.678 94,581.678 94,581.322 92.178,581.322 92.178,579.5 91.822,579.5 91.822,581.322 90,581.322 "
         fill="#f2f2f2"
         id="polygon36"
         transform="translate(4.8766095,3e-5)" />
      <polygon
         points="675,433.678 676.822,433.678 676.822,435.5 677.178,435.5 677.178,433.678 679,433.678 679,433.322 677.178,433.322 677.178,431.5 676.822,431.5 676.822,433.322 675,433.322 "
         fill="#f2f2f2"
         id="polygon38"
         transform="translate(4.8766095,3e-5)" />
      <polygon
         points="826,403.678 827.822,403.678 827.822,405.5 828.178,405.5 828.178,403.678 830,403.678 830,403.322 828.178,403.322 828.178,401.5 827.822,401.5 827.822,403.322 826,403.322 "
         fill="#f2f2f2"
         id="polygon40"
         transform="translate(4.8766095,3e-5)" />
      <polygon
         points="501,483.678 502.822,483.678 502.822,485.5 503.178,485.5 503.178,483.678 505,483.678 505,483.322 503.178,483.322 503.178,481.5 502.822,481.5 502.822,483.322 501,483.322 "
         fill="#f2f2f2"
         id="polygon42"
         transform="translate(4.8766095,3e-5)" />
      <polygon
         points="782,493.678 783.822,493.678 783.822,495.5 784.178,495.5 784.178,493.678 786,493.678 786,493.322 784.178,493.322 784.178,491.5 783.822,491.5 783.822,493.322 782,493.322 "
         fill="#f2f2f2"
         id="polygon44"
         transform="translate(4.8766095,3e-5)" />
      <polygon
         points="443,536.678 444.822,536.678 444.822,538.5 445.178,538.5 445.178,536.678 447,536.678 447,536.322 445.178,536.322 445.178,534.5 444.822,534.5 444.822,536.322 443,536.322 "
         fill="#f2f2f2"
         id="polygon46"
         transform="translate(4.8766095,3e-5)" />
      <polygon
         points="571,538.678 572.822,538.678 572.822,540.5 573.178,540.5 573.178,538.678 575,538.678 575,538.322 573.178,538.322 573.178,536.5 572.822,536.5 572.822,538.322 571,538.322 "
         fill="#f2f2f2"
         id="polygon48"
         transform="translate(4.8766095,3e-5)" />
      <polygon
         points="92,368.678 93.822,368.678 93.822,370.5 94.178,370.5 94.178,368.678 96,368.678 96,368.322 94.178,368.322 94.178,366.5 93.822,366.5 93.822,368.322 92,368.322 "
         fill="#f2f2f2"
         id="polygon50"
         transform="translate(4.8766095,3e-5)" />
      <rect
         x="681.87366"
         y="230.68919"
         width="2.8744299"
         height="58.063419"
         fill="#e6e6e6"
         id="rect52" />
      <polygon
         points="605.424,459.206 624.97,423.563 611.748,385.046 585.303,445.984 590.477,454.607 588.752,457.481 600.825,463.805 600.825,460.356 "
         fill="#e6e6e6"
         id="polygon54"
         transform="translate(4.8766095,3e-5)" />
      <path
         d="m 595.92833,456.90657 c 0,0 -19.5461,30.46892 2.29954,35.068 21.84564,4.59908 4.0242,-32.19358 4.0242,-32.19358 z"
         fill="#e6e6e6"
         id="path56" />
      <path
         d="m 624.09771,443.10932 -6.89862,22.42053 -2.87443,28.74426 -5.174,10.34794 5.74885,46.56571 9.19816,9.19816 4.0242,45.99083 v 20.69587 l 10.92282,18.97121 -14.06578,19.96434 a 6.36092,6.36092 0 0 0 4.99044,10.03088 c 3.10539,0.0815 7.19907,-0.79588 12.52465,-3.55049 16.67168,-8.62328 16.09679,-16.67168 16.09679,-16.67168 0,0 10.34794,0 10.92282,-8.04839 0.57488,-8.04839 -6.32374,-65.53693 -6.32374,-65.53693 l -6.32373,-24.72006 v -67.26159 h 2.29954 l 1.14977,57.48854 5.174,21.27075 0.57488,9.19817 7.47351,91.98165 c 0,0 33.34335,9.19816 35.068,1.72465 1.72465,-7.47351 -12.64747,-12.07259 -12.64747,-12.07259 l 8.62328,-16.67167 v -32.19358 l -2.87443,-6.89862 -5.174,-46.56571 8.62328,-9.19817 4.59908,-5.74885 v -45.99083 l -5.74885,-17.82144 -1.72465,-14.947 -9.19817,-22.99541 c 0,0 -41.96659,-13.79727 -68.9862,2.29952 z"
         fill="#ffffff"
         id="path58" />
      <path
         d="m 698.8328,313.18524 a 43.69128,43.69128 0 1 1 -78.75928,-26.05956 l 0.0115,-0.0115 a 43.6871,43.6871 0 0 1 78.74777,26.07107 z"
         fill="#6c63ff"
         id="path60" />
      <g
         opacity="0.1"
         id="g64"
         transform="translate(4.8766095,3e-5)">
        <path
           d="m 824.7474,370.57057 -3.56426,20.41418 c -26.784,-69.52663 -69.38863,-26.81841 -70.1245,-26.07107 a 43.69088,43.69088 0 0 1 73.68876,5.65689 z"
           transform="translate(-137,-75.5)"
           id="path62" />
      </g>
      <path
         d="m 693.77378,292.77103 -3.56426,20.41418 c -26.784,-69.52663 -69.38862,-26.81841 -70.12449,-26.07107 a 43.69087,43.69087 0 0 1 73.68875,5.65689 z"
         fill="#ffffff"
         id="path66" />
      <path
         d="m 687.78448,284.15265 5.9893,20.79027 c 0,0 -12.4326,37.26348 -70.086,38.56225 l -1.88957,5.323 -6.32374,1.72466 -2.87442,12.07259 8.04839,76.45974 c 0,0 -3.44931,7.47351 2.29954,6.89863 0,0 37.94243,-12.64748 70.7109,-1.14977 0,0 6.89862,2.87442 5.174,-3.44932 0,0 22.99542,-14.37213 21.27076,-29.31915 -1.72466,-14.94702 1.72466,-84.50814 1.72466,-84.50814 0,0 3.44931,-20.121 -6.89863,-24.72006 -6e-5,-4e-5 -15.19806,-21.27257 -27.14519,-18.6847 z"
         fill="#ffffff"
         id="path68" />
      <path
         d="m 675.18104,429.41754 c 0,0 -36.01836,3.61713 -26.04794,23.59148 9.97042,19.97435 27.725,-16.85061 27.725,-16.85061 z"
         fill="#e6e6e6"
         id="path70" />
      <path
         d="m 693.65884,340.20485 c 0,0 -6.32374,7.47351 -4.0242,19.5461 2.29954,12.07259 10.92282,39.0922 10.92282,39.0922 l -30.46892,28.16938 9.19816,12.6475 41.39175,-21.27076 9.19816,-5.74887 v 0 a 238.50666,238.50666 0 0 0 -16.89187,-67.64037 l -1.50446,-3.64543 c 0,0 -10.92282,-4.59906 -17.82144,-1.14975 z"
         fill="#e6e6e6"
         id="path72" />
      <circle
         cx="690.78436"
         cy="309.16104"
         r="10.63538"
         fill="#e6e6e6"
         id="circle74" />
      <circle
         cx="683.31085"
         cy="230.40176"
         r="7.7609501"
         fill="#e6e6e6"
         id="circle76" />
      <polygon
         points="477,352.678 478.822,352.678 478.822,354.5 479.178,354.5 479.178,352.678 481,352.678 481,352.322 479.178,352.322 479.178,350.5 478.822,350.5 478.822,352.322 477,352.322 "
         fill="#f2f2f2"
         id="polygon78"
         transform="translate(4.8766095,3e-5)" />
      <polygon
         points="641,296.678 642.822,296.678 642.822,298.5 643.178,298.5 643.178,296.678 645,296.678 645,296.322 643.178,296.322 643.178,294.5 642.822,294.5 642.822,296.322 641,296.322 "
         fill="#f2f2f2"
         id="polygon80"
         transform="translate(4.8766095,3e-5)" />
      <polygon
         points="623,313.678 624.822,313.678 624.822,315.5 625.178,315.5 625.178,313.678 627,313.678 627,313.322 625.178,313.322 625.178,311.5 624.822,311.5 624.822,313.322 623,313.322 "
         fill="#f2f2f2"
         id="polygon82"
         transform="translate(4.8766095,3e-5)" />
      <circle
         cx="560.87659"
         cy="267.00003"
         r="4"
         fill="#f2f2f2"
         id="circle84" />
      <path
         d="m 363.83441,295.19453 c 0,279.044 -35.08846,279.044 -78.35963,279.044 -22.37132,0 -42.55355,0 -56.82569,-38.5458 -4.10333,-11.078 -7.72825,-25.36221 -10.767,-43.7498 -6.843,-41.3332 -10.767,-103.44665 -10.767,-196.74843 0,-35.87794 4.247,-71.05008 10.767,-103.90133 3.13438,-15.81545 6.79508,-31.08064 10.767,-45.64 4.85717,-17.82535 10.18078,-34.58595 15.55229,-49.92291 3.601,-10.31236 7.23786,-19.99063 10.767,-28.92726 C 271.27438,25.55356 285.47481,0 285.47481,0 c 0,0 78.3596,141.08325 78.3596,295.19453 z"
         fill="#f2f2f2"
         id="path86" />
      <g
         opacity="0.1"
         id="g90"
         transform="translate(4.8766095,3e-5)">
        <path
           d="m 387.09174,142.303 v 486.49975 h -10.767 V 171.2303 c 3.601,-10.31236 7.23789,-19.99063 10.767,-28.9273 z"
           transform="translate(-137,-75.5)"
           id="path88" />
      </g>
      <circle
         cx="283.08212"
         cy="192.60921"
         r="43.06789"
         fill="#3f3d56"
         id="circle92" />
      <path
         d="m 377.59219,547.91928 c -9.57593,-23.57172 -21.87134,-27.63849 -29.90821,-27.28485 v -3.81976 H 222.06924 v 3.81976 c -8.03687,-0.35364 -20.33228,3.71313 -29.90821,27.28485 -15.55224,38.28259 9.57058,104.08075 9.57058,104.08075 0,0 -13.42615,-91.767 31.15833,-92.371 a 52.76238,52.76238 0 0 0 13.98667,12.6896 v 24.6814 h 72 v -22.43408 a 52.707,52.707 0 0 0 17.98669,-14.937 c 44.58448,0.60408 31.15831,92.37108 31.15831,92.37108 0,0 25.12282,-65.79816 9.57058,-104.08075 z"
         fill="#6c63ff"
         id="path94" />
      <circle
         cx="283.08212"
         cy="192.60921"
         r="33.49725"
         fill="#6c63ff"
         id="circle96" />
      <path
         d="m 850.88661,200.96003 h -2 a 82.08452,82.08452 0 0 0 81.99,81.54 v -2 a 80.07862,80.07862 0 0 1 -79.99,-79.54 z"
         fill="#6c63ff"
         id="path98" />
      <path
         d="m 813.88661,200.96003 h -2 a 119.11543,119.11543 0 0 0 118.99,118.54 v -2 a 117.12247,117.12247 0 0 1 -116.99,-116.54 z"
         fill="#6c63ff"
         id="path100" />
      <path
         d="m 775.87661,200.96003 h -2 c 0.25,86.36 70.58,156.54 157,156.54 v -2 c -85.32,0 -154.75,-69.28 -155,-154.54 z"
         fill="#6c63ff"
         id="path102" />
    </g>
    <g
       id="g291"
       transform="matrix(0.08933196,0,0,0.08933196,21.416976,99.013027)"
       inkscape:label="top-panner-bg-right"
       style="opacity:0.35">
      <circle
         id="circle161"
         fill="#f2f2f2"
         r="59.24334"
         cy="521.76477"
         cx="246.82681" />
      <circle
         id="circle163"
         fill="#6c63ff"
         r="59.24334"
         cy="513.09497"
         cx="256.4599" />
      <rect
         id="rect165"
         fill="#3f3d56"
         height="2"
         width="732.99951"
         y="447.54324"
         x="304.17136" />
      <path
         id="path167"
         fill="#3f3d56"
         transform="translate(-30.41456,-122.72838)"
         d="m 714.20735,141.38055 h -260.1696 v -5.36232 h -117.971 v 5.36232 H 74.82467 a 17.5985,17.5985 0 0 0 -17.59852,17.59851 v 356.25219 a 17.59856,17.59856 0 0 0 17.59852,17.59858 h 639.38268 a 17.59856,17.59856 0 0 0 17.59852,-17.59858 V 158.97906 a 17.5985,17.5985 0 0 0 -17.59852,-17.59851 z" />
      <rect
         id="rect169"
         fill="#6c63ff"
         height="353.91302"
         width="627.3913"
         y="49.75362"
         x="50.4058" />
      <circle
         id="circle171"
         fill="#6c63ff"
         r="6.4347801"
         cy="33.666672"
         cx="363.56522" />
      <polygon
         id="polygon173"
         opacity="0.1"
         points="50.406,49.754 498.374,403.667 50.406,403.667 " />
      <circle
         id="circle175"
         fill="#f2f2f2"
         r="60.306801"
         cy="316.8764"
         cx="148.57375" />
      <rect
         id="rect177"
         fill="#3f3d56"
         height="12.24586"
         width="58.605202"
         y="240.62175"
         x="509.95273" />
      <rect
         id="rect179"
         fill="#3f3d56"
         height="5.24823"
         width="200.30733"
         y="145.27896"
         x="439.10165" />
      <rect
         id="rect181"
         fill="#3f3d56"
         height="5.24823"
         width="200.30733"
         y="161.89835"
         x="439.10165" />
      <rect
         id="rect183"
         fill="#3f3d56"
         height="5.24823"
         width="200.30733"
         y="178.51773"
         x="439.10165" />
      <rect
         id="rect185"
         fill="#3f3d56"
         height="5.24823"
         width="200.30733"
         y="195.13712"
         x="439.10165" />
      <rect
         id="rect187"
         fill="#3f3d56"
         height="5.24823"
         width="200.30733"
         y="211.7565"
         x="439.10165" />
      <rect
         id="rect189"
         fill="#f2f2f2"
         height="24.49173"
         width="24.49173"
         y="56.9338"
         x="614.91724" />
      <path
         id="path191"
         fill="#3f3d56"
         transform="translate(-30.41456,-122.72838)"
         d="m 681.1947,215.52507 h -29.74 v -29.74 h 29.74 z m -28.44691,-1.293 h 27.15387 v -27.15391 h -27.15387 z" />
      <path
         id="path193"
         fill="#3f3d56"
         transform="translate(-30.41456,-122.72838)"
         d="m 749.42165,519.96024 h -61.22931 v -4.41153 a 0.87468,0.87468 0 0 0 -0.87471,-0.87471 h -20.9929 a 0.87468,0.87468 0 0 0 -0.87471,0.87471 v 4.41153 h -13.12057 v -4.41153 a 0.87467,0.87467 0 0 0 -0.8747,-0.87471 h -20.99291 a 0.87468,0.87468 0 0 0 -0.8747,0.87471 v 4.41153 h -13.12057 v -4.41153 a 0.87468,0.87468 0 0 0 -0.8747,-0.87471 H 594.599 a 0.87468,0.87468 0 0 0 -0.87471,0.87471 v 4.41153 h -13.1206 v -4.41153 a 0.87468,0.87468 0 0 0 -0.87471,-0.87471 h -20.99291 a 0.87468,0.87468 0 0 0 -0.8747,0.87471 v 4.41153 H 544.7408 v -4.41153 a 0.87468,0.87468 0 0 0 -0.8747,-0.87471 h -20.99291 a 0.87467,0.87467 0 0 0 -0.8747,0.87471 v 4.41153 h -13.12057 v -4.41153 a 0.87468,0.87468 0 0 0 -0.87471,-0.87471 h -20.9929 a 0.87468,0.87468 0 0 0 -0.87471,0.87471 v 4.41153 H 473.015 v -4.41153 A 0.87468,0.87468 0 0 0 472.1403,514.674 H 307.69588 a 0.87468,0.87468 0 0 0 -0.8747,0.87471 v 4.41153 h -13.12057 v -4.41153 a 0.87468,0.87468 0 0 0 -0.8747,-0.87471 H 271.833 a 0.87467,0.87467 0 0 0 -0.8747,0.87471 v 4.41153 h -13.12057 v -4.41153 a 0.87468,0.87468 0 0 0 -0.87471,-0.87471 h -20.9929 a 0.87468,0.87468 0 0 0 -0.87471,0.87471 v 4.41153 h -13.12057 v -4.41153 a 0.87467,0.87467 0 0 0 -0.8747,-0.87471 h -20.99291 a 0.87468,0.87468 0 0 0 -0.8747,0.87471 v 4.41153 H 186.112 v -4.41153 a 0.87468,0.87468 0 0 0 -0.8747,-0.87471 h -20.99295 a 0.87468,0.87468 0 0 0 -0.87471,0.87471 v 4.41153 h -13.12056 v -4.41153 a 0.87468,0.87468 0 0 0 -0.87471,-0.87471 h -20.99291 a 0.87468,0.87468 0 0 0 -0.8747,0.87471 v 4.41153 h -13.12057 v -4.41153 a 0.87468,0.87468 0 0 0 -0.8747,-0.87471 H 92.51858 a 0.87467,0.87467 0 0 0 -0.8747,0.87471 v 4.41153 H 51.40747 a 20.99293,20.99293 0 0 0 -20.99291,20.99291 v 9.4925 a 20.99291,20.99291 0 0 0 20.99291,20.99285 h 698.01418 a 20.9929,20.9929 0 0 0 20.99291,-20.99285 v -9.4925 a 20.99292,20.99292 0 0 0 -20.99291,-20.99291 z" />
      <path
         id="path195"
         fill="#3f3d56"
         transform="translate(-30.41456,-122.72838)"
         d="m 193.58593,477.27162 a 76,76 0 1 1 76,-76 76.08614,76.08614 0 0 1 -76,76 z m 0,-150 a 74,74 0 1 0 74,74 74.08385,74.08385 0 0 0 -74,-74 z" />
      <rect
         id="rect197"
         fill="#3f3d56"
         height="2"
         width="254.99951"
         y="32.54324"
         x="586.17139" />
      <rect
         id="rect199"
         fill="#3f3d56"
         height="2"
         width="732.99951"
         y="560.54321"
         x="406.17136" />
      <rect
         id="rect201"
         fill="#3f3d56"
         height="2"
         width="254.99951"
         y="652.54321"
         x="192.67162" />
      <rect
         id="rect203"
         fill="#6c63ff"
         height="28"
         width="28"
         y="550"
         x="471" />
      <path
         id="path205"
         fill="#3f3d56"
         transform="translate(-30.41456,-122.72838)"
         d="m 546.41456,684.72838 h -34 v -34 h 34 z m -32.52174,-1.47826 h 31.04348 v -31.04348 h -31.04348 z" />
      <rect
         id="rect207"
         fill="#6c63ff"
         height="28"
         width="28"
         y="22"
         x="796" />
      <path
         id="path209"
         fill="#3f3d56"
         transform="translate(-30.41456,-122.72838)"
         d="m 871.41456,156.72838 h -34 v -34 h 34 z m -32.52174,-1.47826 h 31.04348 v -31.04348 h -31.04348 z" />
      <rect
         id="rect211"
         fill="#6c63ff"
         height="28"
         width="28"
         y="550"
         x="1078" />
      <path
         id="path213"
         fill="#3f3d56"
         transform="translate(-30.41456,-122.72838)"
         d="m 1153.4146,684.72838 h -34 v -34 h 34 z m -32.5218,-1.47826 h 31.0435 v -31.04348 h -31.0435 z" />
      <path
         id="path215"
         fill="#3f3d56"
         transform="translate(-30.41456,-122.72838)"
         d="m 1087.5859,354.6866 h -2.3786 V 289.525 a 37.71374,37.71374 0 0 0 -37.7138,-37.71377 H 909.44 A 37.71373,37.71373 0 0 0 871.72613,289.525 V 647.00639 A 37.71374,37.71374 0 0 0 909.44,684.72017 h 138.0535 a 37.71374,37.71374 0 0 0 37.7138,-37.71378 v -245.9367 h 2.3787 z" />
      <path
         id="path217"
         fill="#6c63ff"
         transform="translate(-30.41456,-122.72838)"
         d="m 1077.176,291.74159 v 356.96 a 28.16523,28.16523 0 0 1 -28.1602,28.17 H 910.296 a 28.16511,28.16511 0 0 1 -28.16,-28.17 v -356.96 a 28.163,28.163 0 0 1 28.16,-28.16 h 16.83 a 13.3792,13.3792 0 0 0 12.39,18.43 h 79.09 a 13.37908,13.37908 0 0 0 12.39,-18.43 h 18.02 a 28.16308,28.16308 0 0 1 28.16,28.16 z" />
      <rect
         id="rect219"
         fill="#3f3d56"
         height="12.24586"
         width="41.32357"
         y="376.21768"
         x="928.57965" />
      <rect
         id="rect221"
         fill="#3f3d56"
         height="5.24823"
         width="141.24028"
         y="280.87491"
         x="878.62134" />
      <rect
         id="rect223"
         fill="#3f3d56"
         height="5.24823"
         width="141.24028"
         y="297.49429"
         x="878.62134" />
      <rect
         id="rect225"
         fill="#3f3d56"
         height="5.24823"
         width="141.24028"
         y="314.11368"
         x="878.62134" />
      <rect
         id="rect227"
         fill="#3f3d56"
         height="5.24823"
         width="141.24028"
         y="330.73306"
         x="878.62134" />
      <rect
         id="rect229"
         fill="#3f3d56"
         height="5.24823"
         width="141.24028"
         y="347.35245"
         x="878.62134" />
      <rect
         id="rect231"
         fill="#f2f2f2"
         height="24.49173"
         width="24.49173"
         y="211.17873"
         x="929.68353" />
      <path
         id="path233"
         fill="#3f3d56"
         transform="translate(-30.41456,-122.72838)"
         d="m 969.47386,340.03163 v 29.74 h 29.74 v -29.74 z m 28.45,28.45 h -27.16 v -27.16 h 27.16 z" />
      <path
         id="path235"
         opacity="0.1"
         transform="translate(-30.41456,-122.72838)"
         d="m 1077.176,610.58162 v 38.12 a 28.16523,28.16523 0 0 1 -28.1602,28.17 H 910.296 a 28.16511,28.16511 0 0 1 -28.16,-28.17 v -192.21 l 116.87,92.33 2,1.58 21.74,17.17 2.03,1.61 z" />
      <circle
         id="circle237"
         fill="#f2f2f2"
         r="43.867828"
         cy="498.70691"
         cx="937.24146" />
      <path
         id="path239"
         fill="#3f3d56"
         transform="translate(-30.41456,-122.72838)"
         d="m 350.58593,777.27162 a 87,87 0 1 1 87,-87 87.09858,87.09858 0 0 1 -87,87 z m 0,-172 a 85,85 0 1 0 85,85 85.09629,85.09629 0 0 0 -85,-85 z" />
      <path
         id="path241"
         fill="#3f3d56"
         transform="translate(-30.41456,-122.72838)"
         d="m 980.58593,655.27162 a 55,55 0 1 1 54.99997,-55 55.06223,55.06223 0 0 1 -54.99997,55 z m 0,-108 a 53,53 0 1 0 52.99997,53 53.05963,53.05963 0 0 0 -52.99997,-53 z" />
    </g>
    <g
       id="g304"
       inkscape:label="box-text">
      <rect
         ry="27.52183"
         transform="matrix(-0.72773811,0.68585511,-0.64961504,-0.76026331,0,0)"
         y="-188.21085"
         x="-98.667763"
         height="86.910133"
         width="96.523361"
         id="rect1196"
         style="opacity:1;fill:none;fill-opacity:1;stroke:#ffffff;stroke-width:0.446136" />
      <rect
         style="opacity:1;fill:url(#linearGradient1194);fill-opacity:1;stroke:none;stroke-width:0.230289"
         id="rect363"
         width="94.129906"
         height="84.755058"
         x="-60.062553"
         y="-193.39665"
         transform="matrix(-0.53209668,0.8466836,-0.81977684,-0.5726831,0,0)"
         ry="26.839382" />
      <text
         transform="matrix(0.74725669,0,0,0.74725669,91.361004,27.29739)"
         style="font-style:normal;font-weight:normal;font-size:10.5833px;line-height:1.25;font-family:sans-serif;white-space:pre;shape-inside:url(#rect295);fill:#ffffff;fill-opacity:1;stroke:none"
         id="text293"
         xml:space="preserve"><tspan
           y="112.02488"
           x="161.39258"
           id="tspan297"
           sodipodi:role="line"><tspan
   style="font-size:10.4711px"
   id="tspan1204">Tôi là một nhà phát triển web</tspan>
<tspan
   style="font-weight:bold;font-size:14.1629px"
   id="tspan1200">FULL STACK PHP</tspan>
<tspan
   style="font-size:10.4711px"
   id="tspan1206">Text editor yêu thích của tôi là Vim
Tôi đang thấy thoải mái cùng
PHP - Laravel - Javascript - Vues - Tailwindcss</tspan></tspan></text>
      <g
         id="g361"
         transform="matrix(0.07811546,0,0,0.07811546,103.74854,47.840167)">
        <path
           id="path312"
           fill="#6c63ff"
           transform="translate(-262,-112)"
           d="m 938,450 a 336.852,336.852 0 0 1 -27.22,133.1 l -1.12,2.58 A 338.559,338.559 0 0 1 541.35,782.93 q -3.045,-0.54 -6.08,-1.12 a 334.98111,334.98111 0 0 1 -61.14,-18.03 q -4.815,-1.935 -9.56,-4.01 c -2.16,-0.94 -4.32,-1.91 -6.46,-2.91 A 338.41424,338.41424 0 0 1 262,450 c 0,-186.67 151.33,-338 338,-338 186.67,0 338,151.33 338,338 z" />
        <path
           id="path314"
           opacity="0.2"
           transform="translate(-262,-112)"
           d="m 541.35,782.93 q -3.045,-0.54 -6.08,-1.12 C 533.95,743.5 529.42,664.87 513.96995,582.52 505.52,537.45 493.79,491.25 477.52,449.95 a 412.60387,412.60387 0 0 0 -19.07,-41.84 c -16.44,-31.05 -36.38,-57.19 -60.56,-74.9 l 3.56,-4.86 q 30.165,22.11 54.22,62.08 7.215,11.97 13.86005,25.54 7.125,14.52 13.59,30.83 4.125,10.38 7.97,21.48 16.74,48.195 28.46,109.98 2.59506,13.65 4.94,27.97 C 536.6,680.2 540.25,748.59 541.35,782.93 Z" />
        <path
           id="path316"
           opacity="0.2"
           transform="translate(-262,-112)"
           d="m 464.57,759.77 c -2.16,-0.94 -4.32,-1.91 -6.46,-2.91 -2.09,-22.7 -5.93,-50.86 -12.95,-77.59 a 254.55666,254.55666 0 0 0 -11.81,-35.2 c -8.01,-18.75 -18.38,-34.69 -31.79,-44.52 l 3.56,-4.85 c 14.04,10.28 24.87,26.53 33.24,45.54 9.43,21.42 15.72,46.35 19.91,70.17 3.11,17.69 5.07,34.78 6.3,49.36 z" />
        <circle
           id="circle318"
           opacity="0.2"
           r="30.08857"
           cy="190.98167"
           cx="102.26174" />
        <circle
           id="circle320"
           opacity="0.2"
           r="30.08857"
           cy="449.99084"
           cx="111.9514" />
        <path
           id="path322"
           opacity="0.2"
           transform="translate(-262,-112)"
           d="m 483.71449,353.52139 c -6.38046,35.99732 7.70456,68.59225 7.70456,68.59225 0,0 24.42979,-25.76825 30.81025,-61.76557 6.38046,-35.99732 -7.70457,-68.59225 -7.70457,-68.59225 0,0 -24.42979,25.76825 -30.81024,61.76557 z" />
        <path
           id="path324"
           opacity="0.2"
           transform="translate(-262,-112)"
           d="m 383.71766,438.97122 c 34.33494,12.555 68.83676,4.498 68.83676,4.498 0,0 -21.16612,-28.41279 -55.50106,-40.96784 -34.33494,-12.55505 -68.83675,-4.498 -68.83675,-4.498 0,0 21.16611,28.41279 55.50105,40.96784 z" />
        <path
           id="path326"
           opacity="0.2"
           transform="translate(-262,-112)"
           d="m 377.89534,668.333 c 24.066,8.80008 48.28314,3.0594 48.28314,3.0594 0,0 -14.80161,-20.0084 -38.86762,-28.8085 -24.06601,-8.8001 -48.28314,-3.0594 -48.28314,-3.0594 0,0 14.80161,20.00842 38.86762,28.8085 z" />
        <circle
           id="circle328"
           fill="#d0cde1"
           r="131.77014"
           cy="281.0788"
           cx="337.30609" />
        <path
           id="path330"
           fill="#d0cde1"
           transform="translate(-262,-112)"
           d="m 547.83337,493.96531 c 0,0 16.47127,78.23852 16.47127,86.47415 0,8.23563 78.23852,45.296 78.23852,45.296 L 712.546,613.382 737.253,539.26129 c 0,0 -41.17817,-61.76725 -41.17817,-86.47415 z" />
        <path
           id="path332"
           fill="#2f2e41"
           transform="translate(-262,-112)"
           d="m 910.78,583.1 -1.12,2.58 A 338.559,338.559 0 0 1 541.35,782.93 q -3.045,-0.54 -6.08,-1.12 a 334.98111,334.98111 0 0 1 -61.14,-18.03 q -4.815,-1.935 -9.56,-4.01 c -2.16,-0.94 -4.32,-1.91 -6.46,-2.91 a 337.59273,337.59273 0 0 1 -55.25,-32.28 l -15.62,-45.31 8.78,-6.69995 18.06,-13.79 19.27,-14.71 5.01,-3.83 75.61,-57.72 5.58,-4.26 39.3,-30 0.01,-0.01 c 0,0 42.5,69.25 104.27,48.66 61.77,-20.59 60.42,-79.63 60.42,-79.63 z" />
        <path
           id="path334"
           fill="#2f2e41"
           transform="translate(-262,-112)"
           d="m 485.03538,286.916 c 0,0 41.83653,-90.64581 122.02321,-69.72755 80.18668,20.91826 125.50958,52.29566 128.996,83.67306 3.48642,31.3774 -1.74319,78.44348 -1.74319,78.44348 0,0 -8.716,-64.498 -64.498,-50.55247 -55.782,13.94553 -142.94147,3.48638 -142.94147,3.48638 L 512.9264,457.74849 c 0,0 -15.6887,-22.66145 -33.12058,-8.71594 C 462.37394,462.97806 429.25335,314.807 485.03538,286.916 Z" />
        <path
           id="path336"
           fill="#2f2e41"
           transform="translate(-262,-112)"
           d="m 474.13,763.78 q -4.815,-1.935 -9.56,-4.01 c -2.16,-0.94 -4.32,-1.91 -6.46,-2.91 a 338.835,338.835 0 0 1 -87.59,-58.7 c 9.19,-12.52 16.72,-18.89 16.72,-18.89 h 61.77 l 9.26,31.14 z" />
        <path
           id="path338"
           fill="#2f2e41"
           transform="translate(-262,-112)"
           d="m 856.67,576.32 52.99,9.36 a 337.94434,337.94434 0 0 1 -56.76,88.57 z" />
      </g>
    </g>
  </g>
  <g
     inkscape:label="top-header"
     id="layer1"
     transform="translate(-3.5000002e-7,3.2115646)"
     inkscape:groupmode="layer" />
  <inkscape:templateinfo>
    <inkscape:name>web_design</inkscape:name>
    <inkscape:author>tuanho</inkscape:author>
    <inkscape:date>2020-04-30</inkscape:date>
  </inkscape:templateinfo>
</svg>
