<?xml version="1.0" encoding="UTF-8" standalone="no"?>
<svg
   xmlns:dc="http://purl.org/dc/elements/1.1/"
   xmlns:cc="http://creativecommons.org/ns#"
   xmlns:rdf="http://www.w3.org/1999/02/22-rdf-syntax-ns#"
   xmlns:svg="http://www.w3.org/2000/svg"
   xmlns="http://www.w3.org/2000/svg"
   xmlns:sodipodi="http://sodipodi.sourceforge.net/DTD/sodipodi-0.dtd"
   xmlns:inkscape="http://www.inkscape.org/namespaces/inkscape"
   inkscape:version="1.1-dev (ae55a4e461, 2020-04-06)"
   sodipodi:docname="top-panner-bg-left.svg"
   version="1.1"
   viewBox="0 0 974.97058 787.76111"
   height="787.76111"
   width="974.97058"
   data-name="Layer 1"
   id="e4da07c6-3f45-486e-a553-879e7f222c67">
  <metadata
     id="metadata109">
    <rdf:RDF>
      <cc:Work
         rdf:about="">
        <dc:format>image/svg+xml</dc:format>
        <dc:type
           rdf:resource="http://purl.org/dc/dcmitype/StillImage" />
      </cc:Work>
    </rdf:RDF>
  </metadata>
  <defs
     id="defs107">
    <filter
       height="1.0895454"
       y="-0.044772722"
       width="1.052884"
       x="-0.026442016"
       id="filter961"
       style="color-interpolation-filters:sRGB"
       inkscape:collect="always">
      <feGaussianBlur
         id="feGaussianBlur963"
         stdDeviation="10.202211"
         inkscape:collect="always" />
    </filter>
  </defs>
  <sodipodi:namedview
     inkscape:current-layer="e4da07c6-3f45-486e-a553-879e7f222c67"
     inkscape:window-maximized="1"
     inkscape:window-y="0"
     inkscape:window-x="0"
     inkscape:cy="397.91699"
     inkscape:cx="449.74043"
     inkscape:zoom="0.54283898"
     showgrid="false"
     id="namedview105"
     inkscape:window-height="703"
     inkscape:window-width="1366"
     inkscape:pageshadow="2"
     inkscape:pageopacity="0"
     guidetolerance="10"
     gridtolerance="10"
     objecttolerance="10"
     borderopacity="1"
     bordercolor="#666666"
     pagecolor="#ffffff" />
  <title
     id="title2">to_the_moon</title>
  <path
     style="opacity:0.414441;fill:#000000;filter:url(#filter961)"
     d="m 950.48531,216.39583 v 220.88 a 325.99128,325.99128 0 0 1 -326,326 H 24.485306 v -220.88 c 0,-118.03 62.73,-221.42 156.680004,-278.63 a 323.57742,323.57742 0 0 1 50.88,-25.18 320.09024,320.09024 0 0 1 31.76,-10.53 c 0.21,-0.07 0.43,-0.13 0.64,-0.18 q 4.77,-1.305 9.6,-2.46 c 0.18,-0.05 0.35,-0.09 0.53,-0.13 a 326.11582,326.11582 0 0 1 60.47,-8.53 c 2.41,-0.11005 4.82,-0.2 7.25,-0.25 0.87,-0.03 1.75,-0.05 2.64,-0.05 q 2.76,-0.06 5.55,-0.06 z"
     fill="#3f3d56"
     id="path136" />
  <circle
     id="circle4"
     fill="#ff6584"
     r="83.979156"
     cy="226.93552"
     cx="242.78156" />
  <path
     id="path6"
     fill="#3f3d56"
     d="m 930.87661,200.96003 v 220.88 a 325.99128,325.99128 0 0 1 -326,326 H 4.8766095 v -220.88 c 0,-118.03 62.7299995,-221.42 156.6800005,-278.63 a 323.57742,323.57742 0 0 1 50.88,-25.18 320.09024,320.09024 0 0 1 31.76,-10.53 c 0.21,-0.07 0.43,-0.13 0.64,-0.18 q 4.77,-1.305 9.6,-2.46 c 0.18,-0.05 0.35,-0.09 0.53,-0.13 a 326.11582,326.11582 0 0 1 60.47,-8.53 c 2.41,-0.11005 4.82,-0.2 7.25,-0.25 0.87,-0.03 1.75,-0.05 2.64,-0.05 q 2.76,-0.06 5.55,-0.06 z" />
  <g
     transform="translate(4.8766095,3e-5)"
     id="g12"
     opacity="0.1">
    <ellipse
       id="ellipse10"
       ry="22.222219"
       rx="80"
       cy="692"
       cx="352" />
  </g>
  <g
     transform="translate(4.8766095,3e-5)"
     id="g16"
     opacity="0.1">
    <ellipse
       id="ellipse14"
       ry="22.222219"
       rx="80"
       cy="652"
       cx="525" />
  </g>
  <g
     transform="translate(4.8766095,3e-5)"
     id="g20"
     opacity="0.1">
    <ellipse
       id="ellipse18"
       ry="20"
       rx="72"
       cy="692"
       cx="352" />
  </g>
  <g
     transform="translate(4.8766095,3e-5)"
     id="g24"
     opacity="0.1">
    <ellipse
       id="ellipse22"
       ry="20"
       rx="72"
       cy="652"
       cx="525" />
  </g>
  <circle
     id="circle26"
     fill="#f2f2f2"
     r="7"
     cy="290.00003"
     cx="142.8766" />
  <circle
     id="circle28"
     fill="#f2f2f2"
     r="7"
     cy="564"
     cx="744.87659" />
  <circle
     id="circle30"
     fill="#f2f2f2"
     r="7"
     cy="339.00003"
     cx="414.87662" />
  <circle
     id="circle32"
     fill="#ff6584"
     r="4"
     cy="297.00003"
     cx="761.87659" />
  <circle
     id="circle34"
     fill="#ff6584"
     r="4"
     cy="497.00003"
     cx="158.8766" />
  <polygon
     transform="translate(4.8766095,3e-5)"
     id="polygon36"
     fill="#f2f2f2"
     points="92.178,579.5 91.822,579.5 91.822,581.322 90,581.322 90,581.678 91.822,581.678 91.822,583.5 92.178,583.5 92.178,581.678 94,581.678 94,581.322 92.178,581.322 " />
  <polygon
     transform="translate(4.8766095,3e-5)"
     id="polygon38"
     fill="#f2f2f2"
     points="677.178,431.5 676.822,431.5 676.822,433.322 675,433.322 675,433.678 676.822,433.678 676.822,435.5 677.178,435.5 677.178,433.678 679,433.678 679,433.322 677.178,433.322 " />
  <polygon
     transform="translate(4.8766095,3e-5)"
     id="polygon40"
     fill="#f2f2f2"
     points="828.178,401.5 827.822,401.5 827.822,403.322 826,403.322 826,403.678 827.822,403.678 827.822,405.5 828.178,405.5 828.178,403.678 830,403.678 830,403.322 828.178,403.322 " />
  <polygon
     transform="translate(4.8766095,3e-5)"
     id="polygon42"
     fill="#f2f2f2"
     points="503.178,481.5 502.822,481.5 502.822,483.322 501,483.322 501,483.678 502.822,483.678 502.822,485.5 503.178,485.5 503.178,483.678 505,483.678 505,483.322 503.178,483.322 " />
  <polygon
     transform="translate(4.8766095,3e-5)"
     id="polygon44"
     fill="#f2f2f2"
     points="784.178,491.5 783.822,491.5 783.822,493.322 782,493.322 782,493.678 783.822,493.678 783.822,495.5 784.178,495.5 784.178,493.678 786,493.678 786,493.322 784.178,493.322 " />
  <polygon
     transform="translate(4.8766095,3e-5)"
     id="polygon46"
     fill="#f2f2f2"
     points="445.178,534.5 444.822,534.5 444.822,536.322 443,536.322 443,536.678 444.822,536.678 444.822,538.5 445.178,538.5 445.178,536.678 447,536.678 447,536.322 445.178,536.322 " />
  <polygon
     transform="translate(4.8766095,3e-5)"
     id="polygon48"
     fill="#f2f2f2"
     points="573.178,536.5 572.822,536.5 572.822,538.322 571,538.322 571,538.678 572.822,538.678 572.822,540.5 573.178,540.5 573.178,538.678 575,538.678 575,538.322 573.178,538.322 " />
  <polygon
     transform="translate(4.8766095,3e-5)"
     id="polygon50"
     fill="#f2f2f2"
     points="94.178,366.5 93.822,366.5 93.822,368.322 92,368.322 92,368.678 93.822,368.678 93.822,370.5 94.178,370.5 94.178,368.678 96,368.678 96,368.322 94.178,368.322 " />
  <rect
     id="rect52"
     fill="#e6e6e6"
     height="58.063419"
     width="2.8744299"
     y="230.68919"
     x="681.87366" />
  <polygon
     transform="translate(4.8766095,3e-5)"
     id="polygon54"
     fill="#e6e6e6"
     points="590.477,454.607 588.752,457.481 600.825,463.805 600.825,460.356 605.424,459.206 624.97,423.563 611.748,385.046 585.303,445.984 " />
  <path
     id="path56"
     fill="#e6e6e6"
     d="m 595.92833,456.90657 c 0,0 -19.5461,30.46892 2.29954,35.068 21.84564,4.59908 4.0242,-32.19358 4.0242,-32.19358 z" />
  <path
     id="path58"
     fill="#ffffff"
     d="m 624.09771,443.10932 -6.89862,22.42053 -2.87443,28.74426 -5.174,10.34794 5.74885,46.56571 9.19816,9.19816 4.0242,45.99083 v 20.69587 l 10.92282,18.97121 -14.06578,19.96434 a 6.36092,6.36092 0 0 0 4.99044,10.03088 c 3.10539,0.0815 7.19907,-0.79588 12.52465,-3.55049 16.67168,-8.62328 16.09679,-16.67168 16.09679,-16.67168 0,0 10.34794,0 10.92282,-8.04839 0.57488,-8.04839 -6.32374,-65.53693 -6.32374,-65.53693 l -6.32373,-24.72006 v -67.26159 h 2.29954 l 1.14977,57.48854 5.174,21.27075 0.57488,9.19817 7.47351,91.98165 c 0,0 33.34335,9.19816 35.068,1.72465 1.72465,-7.47351 -12.64747,-12.07259 -12.64747,-12.07259 l 8.62328,-16.67167 v -32.19358 l -2.87443,-6.89862 -5.174,-46.56571 8.62328,-9.19817 4.59908,-5.74885 v -45.99083 l -5.74885,-17.82144 -1.72465,-14.947 -9.19817,-22.99541 c 0,0 -41.96659,-13.79727 -68.9862,2.29952 z" />
  <path
     id="path60"
     fill="#6c63ff"
     d="m 698.8328,313.18524 a 43.69128,43.69128 0 1 1 -78.75928,-26.05956 l 0.0115,-0.0115 a 43.6871,43.6871 0 0 1 78.74777,26.07107 z" />
  <g
     transform="translate(4.8766095,3e-5)"
     id="g64"
     opacity="0.1">
    <path
       id="path62"
       transform="translate(-137,-75.5)"
       d="m 824.7474,370.57057 -3.56426,20.41418 c -26.784,-69.52663 -69.38863,-26.81841 -70.1245,-26.07107 a 43.69088,43.69088 0 0 1 73.68876,5.65689 z" />
  </g>
  <path
     id="path66"
     fill="#ffffff"
     d="m 693.77378,292.77103 -3.56426,20.41418 c -26.784,-69.52663 -69.38862,-26.81841 -70.12449,-26.07107 a 43.69087,43.69087 0 0 1 73.68875,5.65689 z" />
  <path
     id="path68"
     fill="#ffffff"
     d="m 687.78448,284.15265 5.9893,20.79027 c 0,0 -12.4326,37.26348 -70.086,38.56225 l -1.88957,5.323 -6.32374,1.72466 -2.87442,12.07259 8.04839,76.45974 c 0,0 -3.44931,7.47351 2.29954,6.89863 0,0 37.94243,-12.64748 70.7109,-1.14977 0,0 6.89862,2.87442 5.174,-3.44932 0,0 22.99542,-14.37213 21.27076,-29.31915 -1.72466,-14.94702 1.72466,-84.50814 1.72466,-84.50814 0,0 3.44931,-20.121 -6.89863,-24.72006 -6e-5,-4e-5 -15.19806,-21.27257 -27.14519,-18.6847 z" />
  <path
     id="path70"
     fill="#e6e6e6"
     d="m 675.18104,429.41754 c 0,0 -36.01836,3.61713 -26.04794,23.59148 9.97042,19.97435 27.725,-16.85061 27.725,-16.85061 z" />
  <path
     id="path72"
     fill="#e6e6e6"
     d="m 693.65884,340.20485 c 0,0 -6.32374,7.47351 -4.0242,19.5461 2.29954,12.07259 10.92282,39.0922 10.92282,39.0922 l -30.46892,28.16938 9.19816,12.6475 41.39175,-21.27076 9.19816,-5.74887 v 0 a 238.50666,238.50666 0 0 0 -16.89187,-67.64037 l -1.50446,-3.64543 c 0,0 -10.92282,-4.59906 -17.82144,-1.14975 z" />
  <circle
     id="circle74"
     fill="#e6e6e6"
     r="10.63538"
     cy="309.16104"
     cx="690.78436" />
  <circle
     id="circle76"
     fill="#e6e6e6"
     r="7.7609501"
     cy="230.40176"
     cx="683.31085" />
  <polygon
     transform="translate(4.8766095,3e-5)"
     id="polygon78"
     fill="#f2f2f2"
     points="479.178,350.5 478.822,350.5 478.822,352.322 477,352.322 477,352.678 478.822,352.678 478.822,354.5 479.178,354.5 479.178,352.678 481,352.678 481,352.322 479.178,352.322 " />
  <polygon
     transform="translate(4.8766095,3e-5)"
     id="polygon80"
     fill="#f2f2f2"
     points="643.178,294.5 642.822,294.5 642.822,296.322 641,296.322 641,296.678 642.822,296.678 642.822,298.5 643.178,298.5 643.178,296.678 645,296.678 645,296.322 643.178,296.322 " />
  <polygon
     transform="translate(4.8766095,3e-5)"
     id="polygon82"
     fill="#f2f2f2"
     points="625.178,311.5 624.822,311.5 624.822,313.322 623,313.322 623,313.678 624.822,313.678 624.822,315.5 625.178,315.5 625.178,313.678 627,313.678 627,313.322 625.178,313.322 " />
  <circle
     id="circle84"
     fill="#f2f2f2"
     r="4"
     cy="267.00003"
     cx="560.87659" />
  <path
     id="path86"
     fill="#f2f2f2"
     d="m 363.83441,295.19453 c 0,279.044 -35.08846,279.044 -78.35963,279.044 -22.37132,0 -42.55355,0 -56.82569,-38.5458 -4.10333,-11.078 -7.72825,-25.36221 -10.767,-43.7498 -6.843,-41.3332 -10.767,-103.44665 -10.767,-196.74843 0,-35.87794 4.247,-71.05008 10.767,-103.90133 3.13438,-15.81545 6.79508,-31.08064 10.767,-45.64 4.85717,-17.82535 10.18078,-34.58595 15.55229,-49.92291 3.601,-10.31236 7.23786,-19.99063 10.767,-28.92726 C 271.27438,25.55356 285.47481,0 285.47481,0 c 0,0 78.3596,141.08325 78.3596,295.19453 z" />
  <g
     transform="translate(4.8766095,3e-5)"
     id="g90"
     opacity="0.1">
    <path
       id="path88"
       transform="translate(-137,-75.5)"
       d="m 387.09174,142.303 v 486.49975 h -10.767 V 171.2303 c 3.601,-10.31236 7.23789,-19.99063 10.767,-28.9273 z" />
  </g>
  <circle
     id="circle92"
     fill="#3f3d56"
     r="43.06789"
     cy="192.60921"
     cx="283.08212" />
  <path
     id="path94"
     fill="#6c63ff"
     d="m 377.59219,547.91928 c -9.57593,-23.57172 -21.87134,-27.63849 -29.90821,-27.28485 v -3.81976 H 222.06924 v 3.81976 c -8.03687,-0.35364 -20.33228,3.71313 -29.90821,27.28485 -15.55224,38.28259 9.57058,104.08075 9.57058,104.08075 0,0 -13.42615,-91.767 31.15833,-92.371 a 52.76238,52.76238 0 0 0 13.98667,12.6896 v 24.6814 h 72 v -22.43408 a 52.707,52.707 0 0 0 17.98669,-14.937 c 44.58448,0.60408 31.15831,92.37108 31.15831,92.37108 0,0 25.12282,-65.79816 9.57058,-104.08075 z" />
  <circle
     id="circle96"
     fill="#6c63ff"
     r="33.49725"
     cy="192.60921"
     cx="283.08212" />
  <path
     id="path98"
     fill="#6c63ff"
     d="m 850.88661,200.96003 h -2 a 82.08452,82.08452 0 0 0 81.99,81.54 v -2 a 80.07862,80.07862 0 0 1 -79.99,-79.54 z" />
  <path
     id="path100"
     fill="#6c63ff"
     d="m 813.88661,200.96003 h -2 a 119.11543,119.11543 0 0 0 118.99,118.54 v -2 a 117.12247,117.12247 0 0 1 -116.99,-116.54 z" />
  <path
     id="path102"
     fill="#6c63ff"
     d="m 775.87661,200.96003 h -2 c 0.25,86.36 70.58,156.54 157,156.54 v -2 c -85.32,0 -154.75,-69.28 -155,-154.54 z" />
</svg>
