<?xml version="1.0" encoding="UTF-8" standalone="no"?>
<svg
   xmlns:dc="http://purl.org/dc/elements/1.1/"
   xmlns:cc="http://creativecommons.org/ns#"
   xmlns:rdf="http://www.w3.org/1999/02/22-rdf-syntax-ns#"
   xmlns:svg="http://www.w3.org/2000/svg"
   xmlns="http://www.w3.org/2000/svg"
   xmlns:sodipodi="http://sodipodi.sourceforge.net/DTD/sodipodi-0.dtd"
   xmlns:inkscape="http://www.inkscape.org/namespaces/inkscape"
   inkscape:version="1.0rc1 (0bf991bb86, 2020-04-29)"
   sodipodi:docname="discord.svg"
   id="svg10"
   version="1.1"
   viewBox="0 0 21 24"
   height="24"
   width="21">
  <metadata
     id="metadata16">
    <rdf:RDF>
      <cc:Work
         rdf:about="">
        <dc:format>image/svg+xml</dc:format>
        <dc:type
           rdf:resource="http://purl.org/dc/dcmitype/StillImage" />
      </cc:Work>
    </rdf:RDF>
  </metadata>
  <defs
     id="defs14" />
  <sodipodi:namedview
     inkscape:current-layer="svg10"
     inkscape:window-maximized="0"
     inkscape:window-y="27"
     inkscape:window-x="52"
     inkscape:cy="12"
     inkscape:cx="10.5"
     inkscape:zoom="26.333333"
     showgrid="false"
     id="namedview12"
     inkscape:window-height="480"
     inkscape:window-width="793"
     inkscape:pageshadow="2"
     inkscape:pageopacity="0"
     guidetolerance="10"
     gridtolerance="10"
     objecttolerance="10"
     borderopacity="1"
     bordercolor="#666666"
     pagecolor="#ffffff" />
  <title
     id="title2">discord</title>
  <g
     style="fill:#ffffff"
     id="g8"
     fill-rule="nonzero"
     fill="#000000">
    <path
       style="fill:#ffffff"
       id="path4"
       d="m 8.328,10.068 c -0.684,0 -1.224,0.6 -1.224,1.332 0,0.732 0.552,1.332 1.224,1.332 0.684,0 1.224,-0.6 1.224,-1.332 0.012,-0.732 -0.54,-1.332 -1.224,-1.332 z m 4.38,0 c -0.684,0 -1.224,0.6 -1.224,1.332 0,0.732 0.552,1.332 1.224,1.332 0.684,0 1.224,-0.6 1.224,-1.332 0,-0.732 -0.54,-1.332 -1.224,-1.332 z" />
    <path
       style="fill:#ffffff"
       id="path6"
       d="M 18.54,0 H 2.46 A 2.466,2.466 0 0 0 0,2.472 v 16.224 a 2.466,2.466 0 0 0 2.46,2.472 h 13.608 l -0.636,-2.22 1.536,1.428 L 18.42,21.72 21,24 V 2.472 A 2.466,2.466 0 0 0 18.54,0 Z m -4.632,15.672 c 0,0 -0.432,-0.516 -0.792,-0.972 1.572,-0.444 2.172,-1.428 2.172,-1.428 -0.492,0.324 -0.96,0.552 -1.38,0.708 -0.6,0.252 -1.176,0.42 -1.74,0.516 A 8.406,8.406 0 0 1 9.06,14.484 10.073,10.073 0 0 1 7.296,13.968 7.032,7.032 0 0 1 6.42,13.56 C 6.384,13.536 6.348,13.524 6.312,13.5 A 0.166,0.166 0 0 1 6.264,13.464 4.21,4.21 0 0 1 5.928,13.26 c 0,0 0.576,0.96 2.1,1.416 -0.36,0.456 -0.804,0.996 -0.804,0.996 -2.652,-0.084 -3.66,-1.824 -3.66,-1.824 0,-3.864 1.728,-6.996 1.728,-6.996 1.728,-1.296 3.372,-1.26 3.372,-1.26 l 0.12,0.144 C 6.624,6.36 5.628,7.308 5.628,7.308 c 0,0 0.264,-0.144 0.708,-0.348 C 7.62,6.396 8.64,6.24 9.06,6.204 9.132,6.192 9.192,6.18 9.264,6.18 A 9.782,9.782 0 0 1 15.3,7.308 c 0,0 -0.948,-0.9 -2.988,-1.524 L 12.48,5.592 c 0,0 1.644,-0.036 3.372,1.26 0,0 1.728,3.132 1.728,6.996 0,0 -1.02,1.74 -3.672,1.824 z" />
  </g>
</svg>
