<?xml version="1.0" encoding="utf-8"?>
<svg viewBox="0 0 630 630" xmlns="http://www.w3.org/2000/svg">
  <path d="M 364.725 373.905 C 377.415 394.625 393.925 409.855 423.125 409.855 C 447.655 409.855 463.325 397.595 463.325 380.655 C 463.325 360.355 447.225 353.165 420.225 341.355 L 405.425 335.005 C 362.705 316.805 334.325 294.005 334.325 245.805 C 334.325 201.405 368.155 167.605 421.025 167.605 C 458.665 167.605 485.725 180.705 505.225 215.005 L 459.125 244.605 C 448.975 226.405 438.025 219.235 421.025 219.235 C 403.685 219.235 392.695 230.235 392.695 244.605 C 392.695 262.365 403.695 269.555 429.095 280.555 L 443.895 286.895 C 494.195 308.465 522.595 330.455 522.595 379.895 C 522.595 433.195 480.725 462.395 424.495 462.395 C 369.515 462.395 333.995 436.195 316.615 401.855 Z M 155.595 379.035 C 164.895 395.535 173.355 409.485 193.695 409.485 C 213.145 409.485 225.415 401.875 225.415 372.285 L 225.415 170.985 L 284.615 170.985 L 284.615 373.085 C 284.615 434.385 248.675 462.285 196.215 462.285 C 148.815 462.285 121.365 437.755 107.405 408.21 Z" style="fill: rgb(255, 204, 0);"/>
</svg>